HIERARCHY
ROOT Hips
{
	OFFSET 0.000000 0.000000 0.000000 
	CHANNELS 6 Xposition Yposition Zposition Yrotation Zrotation Xrotation 
	JOINT Lumbar
	{
		OFFSET 0.000000 0.000000 0.000000 
		CHANNELS 3 Zrotation Xrotation Yrotation
		JOINT Neck
		{
			OFFSET 0.000000 0.445665 0.000000 
			CHANNELS 3 Zrotation Xrotation Yrotation
			End Site
			{
				OFFSET 0.000000 0.227535 0.000000 
			}
		}
		JOINT RightShoulder
		{
			OFFSET 0.019635 0.377685 0.194865 
			CHANNELS 3 Zrotation Xrotation Yrotation
			JOINT RightElbow
			{
				OFFSET 0.000000 -0.243375 0.000000 
				CHANNELS 2 Zrotation Yrotation
				JOINT RightWrist
				{
					OFFSET 0.000000 -0.264825 0.000000 
					CHANNELS 2 Zrotation Xrotation
					End Site
					{
						OFFSET 0.006600 -0.176220 0.000990 
					}
				}
			}
		}
		JOINT LeftShoulder
		{
			OFFSET 0.019635 0.377685 -0.194865 
			CHANNELS 3 Zrotation Xrotation Yrotation
			JOINT LeftElbow
			{
				OFFSET 0.000000 -0.243375 0.000000 
				CHANNELS 2 Zrotation Yrotation
				JOINT LeftWrist
				{
					OFFSET 0.000000 -0.264825 0.000000 
					CHANNELS 2 Zrotation Xrotation
					End Site
					{
						OFFSET 0.006600 -0.176220 -0.000990 
					}
				}
			}
		}
	}
	JOINT RightHip
	{
		OFFSET 0.052140 -0.069960 0.075570 
		CHANNELS 3 Zrotation Xrotation Yrotation
		JOINT RightKnee
		{
			OFFSET 0.000000 -0.402270 0.000000 
			CHANNELS 1 Zrotation
			JOINT RightAnkle
			{
				OFFSET 0.000000 -0.404085 0.000000 
				CHANNELS 3 Zrotation Xrotation Yrotation
				End Site
				{
					OFFSET 0.204105 -0.089430 0.008415 
				}
			}
		}
	}
	JOINT LeftHip
	{
		OFFSET 0.052140 -0.069960 -0.075570 
		CHANNELS 3 Zrotation Xrotation Yrotation
		JOINT LeftKnee
		{
			OFFSET 0.000000 -0.402270 0.000000 
			CHANNELS 1 Zrotation
			JOINT LeftAnkle
			{
				OFFSET 0.000000 -0.404085 0.000000 
				CHANNELS 3 Zrotation Xrotation Yrotation
				End Site
				{
					OFFSET 0.204105 -0.089430 -0.008415 
				}
			}
		}
	}
}
MOTION
Frames: 28
Frame Time: 0.02
2.25007 0.47087 -1.24615 1102.83258 -13.35243 -3.78269 30.66857 1.10694 -9.27268 -12.39835 7.90275 -2.11994 4.18524 -13.62044 3.4045 119.95642 82.87215 -0.97723 -0.20568 -19.45856 7.36233 -0.72425 114.2614 -85.57442 2.12278 -0.09869 0.77986 -2.38494 10.49649 0.47383 2.56979 -15.08827 -8.83496 0.96412 2.80974 0.54893 0.48357 3.86732 8.52417 5.2776
2.24997 0.4709 -1.24636 1102.73362 -13.35911 -3.76232 30.76506 1.07461 -9.34928 -12.44038 7.94563 -2.11994 5.91124 -13.08525 4.63728 122.89033 85.67361 -0.20405 0.90806 -19.64093 7.20531 -0.52542 114.49054 -89.63129 3.18813 -1.07034 0.81406 -2.41785 10.56525 0.47415 2.66311 -14.89579 -8.74218 0.95231 2.78697 0.62008 0.48342 3.86879 8.49063 5.32332
2.24985 0.47095 -1.24651 1102.62299 -13.36224 -3.75474 30.85471 1.02773 -9.38749 -12.45544 8.05937 -2.11994 7.87491 -12.37631 5.84827 125.46654 89.21069 0.76106 2.2691 -19.76643 6.98914 -0.3415 114.71497 -94.72071 4.50642 -2.30383 0.84846 -2.43951 10.65714 0.47455 2.76971 -14.67611 -8.66488 0.93677 2.77681 0.71232 0.48329 3.87873 8.43955 5.372
2.24974 0.47099 -1.24668 1102.51821 -13.36606 -3.7423 30.94623 0.98783 -9.44134 -12.48023 8.14251 -2.11994 9.72078 -11.7508 7.06102 128.14121 92.2776 1.62301 3.38958 -19.91205 6.80339 -0.15818 114.94023 -99.21259 5.69071 -3.38106 0.88157 -2.46564 10.73877 0.4749 2.86839 -14.47458 -8.58055 0.92219 2.76138 0.79467 0.48314 3.88536 8.39714 5.41886
2.24964 0.47103 -1.24684 1102.41082 -13.37488 -3.72595 31.04329 0.94606 -9.50368 -12.51521 8.22078 -2.11994 11.62503 -11.10533 8.31427 131.0913 95.91338 2.55369 5.0376 -20.08323 6.60184 0.05828 115.17186 -104.25161 6.95964 -4.62509 0.92126 -2.49419 10.81919 0.4753 2.97605 -14.24876 -8.49487 0.91209 2.74435 0.87772 0.48301 3.89006 8.35165 5.46902
2.2495 0.47107 -1.24703 1102.30643 -13.37198 -3.72069 31.12693 0.90492 -9.53863 -12.52285 8.32505 -2.11994 13.45503 -10.46107 9.4744 133.38132 98.54687 3.38668 5.66325 -20.18712 6.41959 0.20095 115.38867 -108.39429 8.10996 -5.58151 0.94665 -2.51529 10.90764 0.47563 3.06769 -14.067 -8.41663 0.89124 2.73336 0.96436 0.48285 3.9007 8.30844 5.5124
2.24929 0.47111 -1.24729 1102.21085 -13.33826 -3.74372 31.1769 0.86828 -9.51057 -12.46038 8.48669 -2.11994 15.05253 -9.857 10.39752 133.93036 98.15619 3.89722 3.25019 -20.11921 6.30394 0.14915 115.56701 -109.80601 8.87998 -5.66379 0.93331 -2.51676 11.01339 0.47575 3.11254 -14.01489 -8.35005 0.84164 2.73791 1.05762 0.48257 3.9252 8.27595 5.53752
2.24903 0.47114 -1.24758 1102.11946 -13.29264 -3.77733 31.21324 0.83295 -9.45575 -12.37164 8.67114 -2.11994 16.5589 -9.26157 11.22402 133.82757 96.7449 4.30343 -0.17168 -19.98535 6.21013 0.02234 115.73015 -110.27971 9.51959 -5.44894 0.90521 -2.5115 11.12648 0.47579 3.14029 -14.00845 -8.29179 0.78121 2.74775 1.15318 0.48226 3.9555 8.24625 5.55525
2.24879 0.47117 -1.24786 1102.02727 -13.25184 -3.80559 31.25467 0.79757 -9.41079 -12.2958 8.84315 -2.11994 18.08546 -8.6656 12.08471 134.02657 95.85137 4.76116 -3.02972 -19.88143 6.10715 -0.07406 115.89946 -111.18431 10.21264 -5.37903 0.88318 -2.51054 11.23551 0.47587 3.17563 -13.97935 -8.23274 0.72541 2.75383 1.24701 0.48197 3.98331 8.21535 5.57553
2.24858 0.47121 -1.2481 1101.92866 -13.21325 -3.83662 31.30056 0.75939 -9.37355 -12.21492 9.02691 -2.11994 19.71212 -8.04805 12.98675 134.19066 94.75793 5.20911 -6.32291 -19.77566 5.99871 -0.15546 116.07223 -112.10604 10.93974 -5.27682 0.86394 -2.50393 11.34771 0.47598 3.21331 -13.95465 -8.16029 0.67044 2.76594 1.34587 0.48166 4.01051 8.184 5.59971
2.2483 0.47122 -1.24845 1101.84628 -13.16748 -3.86418 31.33398 0.72753 -9.31519 -12.13869 9.19009 -2.11994 21.10309 -7.4813 13.77875 134.27611 93.8263 5.64911 -8.9539 -19.65884 5.90785 -0.28566 116.23365 -112.7553 11.5609 -5.16765 0.8353 -2.50765 11.45561 0.47598 3.24052 -13.93536 -8.11916 0.6116 2.76673 1.43274 0.48139 4.04063 8.1539 5.61354
2.24786 0.47117 -1.24907 1101.79407 -13.10287 -3.88011 31.33648 0.71279 -9.1986 -12.08163 9.2955 -2.11994 21.88383 -7.0405 14.30046 134.31532 93.60526 6.10122 -9.49797 -19.52745 5.85881 -0.53299 116.37242 -112.88038 11.92639 -5.11184 0.78459 -2.54145 11.54427 0.47582 3.25285 -13.8935 -8.14998 0.54123 2.73395 1.49975 0.48125 4.07388 8.13226 5.60443
2.24735 0.47108 -1.2498 1101.76133 -13.03177 -3.89211 31.32682 0.70439 -9.06324 -12.03034 9.3781 -2.11994 22.42574 -6.65374 14.7128 134.29749 93.57283 6.54682 -9.34372 -19.38741 5.82748 -0.82669 116.49939 -112.75842 12.18761 -5.05779 0.7247 -2.58585 11.63053 0.47551 3.25224 -13.86227 -8.21529 0.46799 2.68996 1.55101 0.48116 4.11047 8.1112 5.58457
2.24685 0.471 -1.2505 1101.72781 -12.96497 -3.90543 31.32276 0.69325 -8.9407 -11.9766 9.46784 -2.11994 23.0639 -6.25109 15.16899 134.30015 93.4451 6.98828 -9.51859 -19.25188 5.78901 -1.0985 116.62857 -112.74549 12.4919 -5.00184 0.66902 -2.6257 11.71986 0.47521 3.25238 -13.84142 -8.27164 0.39836 2.65144 1.60147 0.48106 4.14781 8.08572 5.5669
2.24643 0.47097 -1.25115 1101.65759 -12.89224 -3.92081 31.31827 0.68178 -8.79846 -11.92112 9.57238 -2.11994 23.75142 -5.81181 15.64723 134.30302 93.33557 7.45434 -9.68081 -19.11202 5.74659 -1.37609 116.7706 -112.71514 12.8097 -4.94097 0.61332 -2.6647 11.79601 0.47523 3.27799 -13.7509 -8.2958 0.31865 2.61058 1.68936 0.48088 4.17583 8.07621 5.55973
2.24583 0.47082 -1.25191 1101.67189 -12.83022 -3.93115 31.31153 0.67217 -8.69395 -11.87107 9.63997 -2.11994 24.27995 -5.46183 16.05396 134.30015 93.22997 7.87128 -9.68798 -18.9794 5.71739 -1.65206 116.88317 -112.67331 13.07667 -4.89383 0.55485 -2.70743 11.9053 0.47446 3.24218 -13.81624 -8.4003 0.25938 2.57303 1.69081 0.48088 4.22391 8.03564 5.52905
2.24477 0.47039 -1.25295 1101.8856 -12.80189 -3.92608 31.30558 0.66905 -8.69137 -11.83428 9.61377 -2.11994 24.43237 -5.34375 16.29734 134.30151 93.24004 8.13277 -9.45408 -18.87446 5.71113 -1.9085 116.91787 -112.67331 13.22479 -4.89188 0.49826 -2.76401 12.05316 0.47214 3.09023 -14.22962 -8.67106 0.25785 2.53786 1.49676 0.48129 4.32721 7.89126 5.4293
2.24354 0.46984 -1.25408 1102.18966 -12.78436 -3.9167 31.29733 0.66716 -8.72872 -11.80304 9.55025 -2.11994 24.43216 -5.31415 16.47134 134.30127 93.23067 8.34838 -9.08017 -18.7764 5.71915 -2.16203 116.92322 -112.6725 13.32619 -4.90379 0.4381 -2.82318 12.24507 0.4688 2.86977 -14.81116 -9.02849 0.27729 2.50856 1.20834 0.48188 4.45038 7.71902 5.3077
2.24238 0.46932 -1.25514 1102.4708 -12.76001 -3.9106 31.28729 0.66266 -8.75255 -11.76952 9.50232 -2.11994 24.49993 -5.24472 16.67313 134.30108 93.12835 8.60103 -8.75465 -18.67191 5.72661 -2.41891 116.94181 -112.66809 13.45291 -4.90567 0.37464 -2.87683 12.45106 0.46568 2.64503 -15.37157 -9.37935 0.28634 2.48223 0.93803 0.48242 4.56407 7.57113 5.20038
2.24125 0.4689 -1.25633 1102.67386 -12.7426 -3.89793 31.28787 0.66655 -8.7566 -11.73484 9.46064 -2.11994 24.56706 -5.17465 16.88804 134.30129 93.43605 8.78985 -8.46971 -18.58105 5.70975 -2.66884 116.96074 -112.67108 13.56087 -4.92287 0.33087 -2.948 12.51031 0.46407 2.56047 -15.71123 -9.60008 0.29746 2.43002 0.7741 0.48283 4.68 7.37353 5.07372
2.24002 0.46826 -1.25726 1103.06349 -12.71451 -3.89905 31.2671 0.65376 -8.81103 -11.70423 9.39581 -2.11994 24.59999 -5.12735 17.05908 134.30118 92.91492 9.09478 -8.07602 -18.46349 5.74659 -2.93199 116.9717 -112.66201 13.69543 -4.91185 0.24632 -2.98463 12.88904 0.45849 2.17899 -16.53505 -10.10294 0.31109 2.43539 0.36351 0.48355 4.79567 7.27332 4.98307
2.23852 0.467 -1.25755 1103.92417 -12.64506 -3.93046 31.17867 0.58935 -9.00019 -11.68077 9.28883 -2.11994 24.59575 -5.11222 17.13872 134.30124 89.8351 9.78411 -7.41695 -18.27131 5.9291 -3.23155 116.9721 -112.62012 13.93886 -4.81661 0.0419 -2.91225 14.10901 0.4474 0.89974 -18.78292 -11.43847 0.31166 2.58091 -0.68207 0.48504 4.90792 7.44496 4.99074
2.23693 0.46553 -1.25756 1104.97443 -12.56654 -3.97778 31.07103 0.50899 -9.23801 -11.66215 9.15712 -2.11994 24.55855 -5.1189 17.17435 134.30123 85.97248 10.58256 -6.65611 -18.05201 6.16489 -3.54432 116.96497 -112.56717 14.20659 -4.69304 -0.20172 -2.80715 15.65333 0.43152 -0.65755 -21.48542 -13.03901 0.31731 2.78794 -1.97776 0.48685 5.01871 7.71639 5.0367
2.2354 0.46417 -1.25765 1105.95105 -12.49789 -4.02338 30.97782 0.43941 -9.44987 -11.64255 9.02917 -2.11994 24.52626 -5.12052 17.22288 134.30125 82.64733 11.29604 -5.94542 -17.84451 6.3756 -3.85146 116.95825 -112.52078 14.44813 -4.58437 -0.42224 -2.72579 17.07054 0.41426 -2.0263 -23.89914 -14.47119 0.32976 2.97773 -3.1728 0.48853 5.12881 7.94452 5.06937
2.23375 0.46272 -1.25794 1106.87419 -12.40415 -4.04472 30.8588 0.35518 -9.67842 -11.6162 8.93344 -2.11994 24.53634 -5.1025 17.30068 134.30138 78.5536 12.15535 -5.21477 -17.63903 6.59048 -4.15738 116.96231 -112.46879 14.75243 -4.46768 -0.66589 -2.60804 18.40884 0.41143 -3.66278 -26.67712 -16.11598 0.30246 3.12063 -4.31242 0.49013 5.24565 8.16258 5.08378
2.23237 0.46142 -1.25774 1107.95735 -12.36185 -4.12147 30.79109 0.29739 -9.8844 -11.60724 8.76275 -2.11994 24.44567 -5.1323 17.30576 134.30101 75.87606 12.73983 -4.50116 -17.42335 6.80915 -4.46848 116.94365 -112.42455 14.93177 -4.36074 -0.86975 -2.5571 19.98139 0.37812 -4.80323 -28.78779 -17.37068 0.36141 3.37804 -5.63037 0.49197 5.34745 8.42624 5.14579
2.23159 0.46052 -1.25636 1109.39601 -12.45135 -4.33812 30.85159 0.31854 -10.00494 -11.62546 8.41232 -2.11994 24.14335 -5.26297 17.14063 134.30166 77.28981 12.51827 -3.88171 -17.18057 7.02563 -4.7954 116.85401 -112.41013 14.76471 -4.28709 -0.96185 -2.70675 22.17574 0.25581 -4.53918 -29.07393 -17.565 0.63653 3.91639 -7.33698 0.49444 5.41269 8.78347 5.3266
2.23112 0.45978 -1.25448 1110.99689 -12.59535 -4.61143 30.96739 0.36633 -10.10219 -11.66435 7.98359 -2.11994 23.73094 -5.44494 16.90081 134.30131 80.15556 12.02045 -3.2804 -16.92878 7.24434 -5.12634 116.74355 -112.39872 14.46976 -4.22363 -1.01132 -2.9219 24.58283 0.10412 -3.7626 -28.65332 -17.34543 1.0027 4.57124 -9.2206 0.49712 5.4629 9.18256 5.5535
